<svg xmlns="http://www.w3.org/2000/svg" viewBox="0 0 200 200"><defs><style>.cls-1{fill:#fff;}</style></defs><g id="Mail"><path class="cls-1" d="M89.66,107a17.85,17.85,0,0,0,20.68,0l62-44.07a4.6,4.6,0,0,0,1.88-4.64A41.42,41.42,0,0,0,133.59,25H66.41a41.42,41.42,0,0,0-40.6,33.27,4.6,4.6,0,0,0,1.88,4.64Z"/><path class="cls-1" d="M121.56,117.67a37.2,37.2,0,0,1-43.12,0L28.59,82.22A2.27,2.27,0,0,0,25,84.07v49.52A41.41,41.41,0,0,0,66.41,175h67.18A41.41,41.41,0,0,0,175,133.59V84.07a2.27,2.27,0,0,0-3.59-1.85Z"/></g></svg>