<svg id="Facebook" xmlns="http://www.w3.org/2000/svg" viewBox="0 0 200 200"><defs><style>.cls-1{fill:#fff;}</style></defs><path class="cls-1" d="M133.59,25H66.41A41.41,41.41,0,0,0,25,66.41v67.18A41.41,41.41,0,0,0,66.41,175h31a5.47,5.47,0,0,0,5.47-5.48V114.47a1.23,1.23,0,0,0-1.23-1.23H89.25a2.69,2.69,0,0,1-2.69-2.7V100.15a2.69,2.69,0,0,1,2.69-2.69h12.39a1.23,1.23,0,0,0,1.23-1.24V83.91q0-13.75,7.89-21.24,7.49-6.68,20-6.67H139a5.16,5.16,0,0,1,5.15,5.16v9.1A5.16,5.16,0,0,1,139,75.42H132.4q-8.9,0-8.9,8.49V96.22a1.24,1.24,0,0,0,1.24,1.24h16.7a2.69,2.69,0,0,1,2.69,2.69v10.39a2.69,2.69,0,0,1-2.69,2.7h-16.7a1.24,1.24,0,0,0-1.24,1.23v55.05A5.48,5.48,0,0,0,129,175h4.61A41.41,41.41,0,0,0,175,133.59V66.41A41.41,41.41,0,0,0,133.59,25Z"/></svg>