<svg xmlns="http://www.w3.org/2000/svg" viewBox="0 0 200 200"><defs><style>.cls-1{fill:#fff;}</style></defs><g id="Instagram"><path class="cls-1" d="M133.59,25H66.41A41.41,41.41,0,0,0,25,66.41v67.18A41.41,41.41,0,0,0,66.41,175h67.18A41.41,41.41,0,0,0,175,133.59V66.41A41.41,41.41,0,0,0,133.59,25Zm1.91,75A35.5,35.5,0,0,1,100,135.5h0A35.5,35.5,0,0,1,64.5,100h0A35.5,35.5,0,0,1,100,64.5h0A35.5,35.5,0,0,1,135.5,100ZM147,67a8,8,0,1,1,8-8A8,8,0,0,1,147,67Z"/><rect class="cls-1" x="77" y="77" width="46" height="46" rx="23"/></g></svg>