<svg xmlns="http://www.w3.org/2000/svg" viewBox="0 0 200 200"><defs><style>.cls-1{fill:#fff;}</style></defs><g id="Phone"><path class="cls-1" d="M133.59,25H66.41A41.41,41.41,0,0,0,25,66.41v67.18A41.41,41.41,0,0,0,66.41,175h67.18A41.41,41.41,0,0,0,175,133.59V66.41A41.41,41.41,0,0,0,133.59,25ZM63.11,147.39A4.44,4.44,0,0,1,58.78,144L54.33,124.7a4.49,4.49,0,0,1,2.59-5.11l20.74-8.89A4.43,4.43,0,0,1,82.84,112L90,120.71a4,4,0,0,0,5,1,68.72,68.72,0,0,0,28.38-28.39,4,4,0,0,0-1-5l-8.72-7.15A4.42,4.42,0,0,1,112.33,76l8.88-20.73a4.48,4.48,0,0,1,5.1-2.58l19.25,4.45A4.43,4.43,0,0,1,149,61.5,85.88,85.88,0,0,1,63.11,147.39Z"/></g></svg>